<?xml version="1.0" encoding="utf-8"?>
<!-- Generator: Adobe Illustrator 23.0.2, SVG Export Plug-In . SVG Version: 6.00 Build 0)  -->
<svg version="1.1" id="Layer_1" xmlns="http://www.w3.org/2000/svg" xmlns:xlink="http://www.w3.org/1999/xlink" x="0px" y="0px"
	 viewBox="0 0 112 150" style="enable-background:new 0 0 112 150;" xml:space="preserve">
<style type="text/css">
	.st0{fill:#ED3524;}
	.st1{fill:#B30839;}
</style>
<g>
	<path class="st0" d="M3.3,47.7c2.6-3.1,5.3-6.2,7.9-9.2c5-5.7,10-11.4,15-17.1c0.3-0.4,0.9-0.7,1.4-0.7c11.3,0,22.6,0,33.9,0
		c15.3,0,30.6,0,46,0c0.4,0,0.7,0,1.4,0c-8,9.2-15.8,18.1-23.7,27.2c-7.9-9.1-15.7-18.1-23.6-27.2c-1.7,1.9-3.3,3.8-4.9,5.6
		c-6.1,7-12.2,14.1-18.3,21.1c-0.1,0.1-0.2,0.2-0.3,0.3c-7.1,0-14.1,0-21.2,0C12.3,47.7,7.8,47.7,3.3,47.7z"/>
	<path class="st1" d="M38,102.2c4.7,5.4,9.4,10.8,14.1,16.2c2.9,3.4,5.9,6.8,8.8,10.1c0.2,0.2,0.3,0.4,0.6,0.7
		c7.9-9.1,15.7-18.1,23.6-27.2c7.9,9.1,15.7,18.1,23.6,27.2c-0.4,0-0.6,0.1-0.8,0.1c-15.5,0-30.9,0-46.4,0c-11.1,0-22.2,0-33.3,0.1
		c-1.1,0-1.8-0.3-2.6-1.2c-7.4-8.5-14.8-17-22.2-25.5c-0.1-0.1-0.2-0.3-0.3-0.4c0.3,0,0.6,0,0.8,0C15.4,102.2,26.7,102.2,38,102.2z"
		/>
	<path class="st0" d="M38,102.2c-11.3,0-22.6,0-33.9,0c-0.3,0-0.6,0-0.8,0c1.2-1.5,2.4-2.9,3.6-4.4c6.6-7.7,13.3-15.3,19.9-22.9
		c11.6,0,23.1,0,34.7,0c-1.3,1.6-2.6,3.2-4,4.8c-6.4,7.4-12.8,14.8-19.2,22.1C38.1,102,38.1,102.1,38,102.2z"/>
	<path class="st1" d="M61.4,75c-11.6,0-23.1,0-34.7,0c-5.2-6-10.5-12.1-15.7-18.1c-2.4-2.8-4.9-5.6-7.3-8.4
		c-0.2-0.2-0.3-0.5-0.4-0.8c4.5,0,9,0,13.5,0c7.1,0,14.1,0,21.2,0c1.9,2.3,3.8,4.5,5.8,6.8c5.8,6.7,11.6,13.3,17.4,20
		C61.2,74.6,61.3,74.8,61.4,75z"/>
</g>
</svg>
